<svg xmlns="http://www.w3.org/2000/svg" xmlns:xlink="http://www.w3.org/1999/xlink" version="1.1" x="0px" y="0px" viewBox="0 0 100 100" enable-background="new 0 0 100 100" xml:space="preserve"><g><path fill="#000000" d="M50.248,58.004l21.153-18.015v-8.494v-2.146v-6.844H61.093h-3.232H42.4h-3.261H28.595v6.911v2.138v8.43   l10.926,9.113L50.248,58.004z M51.62,28.863c4.916,0,8.221,3.446,8.221,8.164c0,4.238-2.374,6.726-5.029,6.726   c-1.131,0-2.176-0.763-2.09-2.487h-0.113c-0.988,1.667-2.289,2.487-3.984,2.487c-1.638,0-3.051-1.329-3.051-3.561   c0-3.503,2.769-6.695,6.696-6.695c1.213,0,2.288,0.254,3.022,0.593l-0.959,5.113c-0.425,2.147-0.086,3.137,0.847,3.164   c1.44,0.029,3.051-1.892,3.051-5.17c0-4.096-2.458-7.035-6.837-7.035c-4.605,0-8.475,3.646-8.475,9.379   c0,4.718,3.078,7.628,7.26,7.628c1.61,0,3.107-0.339,4.266-0.988l0.452,1.215c-1.554,0.82-3.135,1.131-5.029,1.131   c-4.632,0-8.559-3.391-8.559-8.816C41.307,33.892,45.346,28.863,51.62,28.863z"></path><path fill="#000000" d="M47.438,40.08c0,1.243,0.62,2.147,1.865,2.147c1.638,0,3.135-2.09,3.446-3.843l0.593-3.192   c-0.282-0.084-0.763-0.198-1.413-0.198C49.444,34.994,47.438,37.338,47.438,40.08z"></path><polygon fill="#000000" points="26.808,32.725 22.895,35.29 26.808,38.54  "></polygon><polygon fill="#000000" points="50.18,17.406 45.127,20.718 55.168,20.718  "></polygon><path fill="#000000" d="M11.608,5v76.79h50.106L82.333,95V81.79h6.059V5H11.608z M79.5,70.736h-59V34.722l6.308-4.134v-9.87h15.058   l8.32-5.454l8.214,5.454h14.788v9.818l6.311,4.19V70.736z"></path><polygon fill="#000000" points="50.261,60.339 50.235,60.361 38.384,50.475 22.288,37.109 22.288,68.948 77.712,68.948    77.712,37.134 50.284,60.358  "></polygon><polygon fill="#000000" points="73.189,38.622 77.121,35.292 73.189,32.682  "></polygon></g></svg>