<svg xmlns="http://www.w3.org/2000/svg" xmlns:xlink="http://www.w3.org/1999/xlink" version="1.1" x="0px" y="0px" viewBox="50.006 50.007 100 100" enable-background="new 50.006 50.007 100 100" xml:space="preserve"><g><g><path fill="#000000" d="M146.342,140.118c-0.644,0-1.165-0.521-1.165-1.164v-19.149c-0.002-7.554-6.147-13.7-13.699-13.7    c-0.642,0-1.164-0.521-1.164-1.164l-0.003-20.452c0-2.091-1.701-3.793-3.791-3.794c-0.644,0-1.164-0.522-1.164-1.166    c0-0.643,0.522-1.163,1.164-1.163h0.002c3.373,0.001,6.118,2.749,6.118,6.124l0.003,19.328    c8.294,0.599,14.862,7.541,14.863,15.988v19.149C147.506,139.597,146.986,140.118,146.342,140.118z"></path></g><g><path fill="#000000" d="M126.519,131.511H58.626c-3.375,0-6.12-2.744-6.12-6.12V104.94c0-0.642,0.522-1.165,1.165-1.165h5.454    c0.31,0,0.605,0.122,0.824,0.34c0.219,0.219,0.341,0.515,0.341,0.824c-0.001,1.277,0.496,2.478,1.399,3.381s2.104,1.4,3.381,1.4    c2.636,0,4.782-2.146,4.782-4.78c0-2.637-2.146-4.783-4.782-4.783c-1.032,0-2.013,0.323-2.837,0.932    c-0.519,0.385-1.245,0.272-1.628-0.243c-0.383-0.518-0.275-1.245,0.242-1.629c1.229-0.91,2.69-1.389,4.223-1.389    c3.921,0,7.11,3.19,7.11,7.111s-3.189,7.109-7.11,7.109c-1.899,0-3.685-0.739-5.029-2.083c-1.065-1.064-1.75-2.407-1.989-3.863    h-3.219v19.288c0,2.09,1.7,3.79,3.791,3.79h67.892c2.09,0,3.793-1.699,3.793-3.79v-12.789c0-0.645,0.521-1.164,1.164-1.164    c0.643,0,1.165,0.52,1.165,1.164v12.789C132.639,128.766,129.894,131.511,126.519,131.511z"></path></g><g><path fill="#000000" d="M88.568,105.126c-0.303,0-0.6-0.118-0.823-0.341c-0.323-0.322-0.428-0.803-0.267-1.23l3.18-8.526    c0.058-0.155,0.147-0.298,0.267-0.416l13.918-13.918L58.63,80.696h-0.001c-2.089,0-3.789,1.7-3.793,3.794v13.735    c0,0.643-0.521,1.165-1.165,1.165c-0.642,0-1.164-0.521-1.164-1.165V84.488c0.003-3.377,2.747-6.123,6.12-6.123    c0.001,0,0.002,0,0.002,0l49.024,0c0.471,0,0.896,0.283,1.077,0.719c0.179,0.435,0.08,0.936-0.253,1.269L92.751,96.078l-2.2,5.9    l6.134-2.287c0.604-0.226,1.275,0.081,1.499,0.684c0.224,0.602-0.081,1.274-0.685,1.499l-8.524,3.18    C88.843,105.102,88.704,105.126,88.568,105.126z"></path></g><g><g><path fill="#000000" d="M70.026,95.102h-9.913c-0.644,0-1.165-0.521-1.165-1.165s0.521-1.165,1.165-1.165h9.913     c0.644,0,1.165,0.521,1.165,1.165S70.67,95.102,70.026,95.102z"></path></g><g><path fill="#000000" d="M70.026,90.072h-9.913c-0.644,0-1.165-0.521-1.165-1.165s0.521-1.165,1.165-1.165h9.913     c0.644,0,1.165,0.521,1.165,1.165S70.67,90.072,70.026,90.072z"></path></g></g><g><g><path fill="#000000" d="M70.026,122.134h-9.913c-0.644,0-1.165-0.521-1.165-1.164c0-0.643,0.521-1.165,1.165-1.165h9.913     c0.644,0,1.165,0.522,1.165,1.165C71.191,121.615,70.67,122.134,70.026,122.134z"></path></g><g><path fill="#000000" d="M70.026,117.104L70.026,117.104l-9.913-0.001c-0.644,0-1.165-0.521-1.165-1.164s0.522-1.165,1.165-1.165     l0,0l9.913,0.002c0.644,0,1.165,0.522,1.165,1.164C71.191,116.583,70.668,117.104,70.026,117.104z"></path></g></g><g><path fill="#000000" d="M127.951,68.876c-0.298,0-0.598-0.113-0.825-0.339c-0.455-0.456-0.455-1.192,0-1.646l2.875-2.875    c0.198-0.199,0.308-0.464,0.308-0.745c0-0.278-0.11-0.543-0.308-0.74c-0.408-0.407-1.076-0.41-1.49-0.001l-2.87,2.875    c-0.454,0.455-1.193,0.454-1.648,0.001c-0.455-0.455-0.455-1.193,0-1.648l2.872-2.876c1.321-1.314,3.467-1.313,4.783,0    c0.637,0.637,0.989,1.485,0.989,2.388c0,0.904-0.351,1.753-0.989,2.393l-2.875,2.875    C128.547,68.763,128.249,68.876,127.951,68.876z"></path></g><g><path fill="#000000" d="M103.565,90.128c-0.298,0-0.598-0.113-0.825-0.34c-0.454-0.456-0.454-1.192,0-1.646l1.989-1.988    c0.455-0.455,1.192-0.455,1.647,0c0.454,0.455,0.454,1.192,0,1.646l-1.989,1.988C104.16,90.015,103.863,90.128,103.565,90.128z"></path></g><g><path fill="#000000" d="M99.136,94.556c-0.298,0-0.596-0.113-0.824-0.34c-0.456-0.455-0.456-1.193,0-1.646l1.989-1.989    c0.455-0.455,1.191-0.455,1.646,0c0.455,0.456,0.455,1.193,0,1.646l-1.99,1.989C99.732,94.443,99.434,94.556,99.136,94.556z"></path></g><g><path fill="#000000" d="M123.05,122.134H75.972c-0.644,0-1.165-0.521-1.165-1.164V88.907c0-0.644,0.521-1.165,1.165-1.165    l13.953-0.001c0.643,0,1.165,0.521,1.165,1.165s-0.521,1.165-1.165,1.165l-12.789,0.001v29.734h44.749V90.071H108.97    c-0.471,0-0.896-0.282-1.075-0.72c-0.182-0.435-0.082-0.935,0.252-1.269l19.262-19.263l-3.698-3.699l-9.944,9.94    c-0.455,0.455-1.191,0.455-1.646,0c-0.455-0.455-0.455-1.192,0-1.647l10.766-10.761c0.455-0.455,1.192-0.455,1.647,0l5.345,5.345    c0.454,0.455,0.454,1.192,0,1.646L111.78,87.741h11.269c0.644,0,1.165,0.521,1.165,1.165v32.065    C124.214,121.615,123.694,122.134,123.05,122.134z"></path></g><g><path fill="#000000" d="M97.094,101.947c-0.298,0-0.598-0.114-0.825-0.341c-0.455-0.455-0.455-1.191,0-1.646l6.894-6.895    c0.456-0.455,1.191-0.455,1.646,0c0.455,0.455,0.455,1.192,0,1.646l-6.894,6.895C97.689,101.832,97.391,101.947,97.094,101.947z"></path></g></g></svg>