<svg xmlns="http://www.w3.org/2000/svg" xmlns:xlink="http://www.w3.org/1999/xlink" version="1.1" x="0px" y="0px" viewBox="0 0 100 100" enable-background="new 0 0 100 100" xml:space="preserve"><path d="M94.185,28.591c-1.014,0-1.953,0.315-2.73,0.849c-8.4-8.236-19.471-12.772-31.238-12.772  c-7.474,0-14.668,1.829-21.077,5.273L54.232,6.848c0.305,0.118,0.634,0.19,0.981,0.19c1.513,0,2.738-1.226,2.738-2.738  s-1.226-2.738-2.738-2.738c-1.512,0-2.738,1.226-2.738,2.738c0,0.465,0.127,0.896,0.331,1.28L30.975,27.412  c-0.347-0.159-0.73-0.254-1.138-0.254c-1.512,0-2.738,1.226-2.738,2.738c0,0.407,0.095,0.791,0.254,1.137L5.082,53.305  c-0.347-0.158-0.73-0.253-1.138-0.253c-1.512,0-2.738,1.226-2.738,2.737c0,1.513,1.226,2.738,2.738,2.738s2.738-1.226,2.738-2.738  c0-0.407-0.095-0.79-0.254-1.138l14.903-14.902C17.9,46.148,16.079,53.33,16.079,60.79c0,11.671,4.465,22.655,12.573,31.029  c-0.509,0.767-0.81,1.682-0.81,2.669c0,2.668,2.17,4.837,4.837,4.837c2.667,0,4.837-2.169,4.837-4.837  c0-2.667-2.17-4.836-4.837-4.836c-0.986,0-1.902,0.3-2.667,0.808c-7.748-8.014-12.029-18.509-12.029-29.67  c0-10.566,3.856-20.522,10.835-28.356c0.315,0.126,0.658,0.2,1.019,0.2c1.513,0,2.738-1.226,2.738-2.738  c0-0.341-0.078-0.661-0.193-0.961c7.752-6.685,17.505-10.362,27.833-10.362c11.27,0,21.867,4.355,29.908,12.244  c-0.487,0.754-0.777,1.648-0.777,2.611c0,2.667,2.171,4.836,4.838,4.836c2.666,0,4.837-2.17,4.837-4.836  S96.851,28.591,94.185,28.591z M32.68,91.557c1.617,0,2.932,1.315,2.932,2.932c0,1.617-1.315,2.932-2.932,2.932  c-1.617,0-2.933-1.314-2.933-2.932C29.747,92.872,31.063,91.557,32.68,91.557z M94.185,36.359c-1.618,0-2.934-1.315-2.934-2.932  c0-1.616,1.315-2.932,2.934-2.932c1.615,0,2.932,1.315,2.932,2.932C97.116,35.044,95.8,36.359,94.185,36.359z"></path><path d="M85.691,78.03l-5.871-5.871l-2.876-17.021l-42.352-19.8l19.499,41.793l17.855,2.702l5.439,5.441L85.691,78.03z   M77.475,82.671l-3.89-3.892l5.361-4.805l3.958,3.959L77.475,82.671z M39.712,41.807l18.798,18.797  c-0.253,0.489-0.411,1.034-0.411,1.622c0,1.953,1.588,3.542,3.54,3.542c1.953,0,3.541-1.589,3.541-3.542  c0-1.951-1.588-3.538-3.541-3.538c-0.67,0-1.293,0.197-1.829,0.522L41.067,40.467L75.233,56.44l2.687,15.896l-6.18,5.541  l-16.354-2.476L39.712,41.807z M60.004,62.226c0-0.9,0.735-1.633,1.636-1.633c0.901,0,1.637,0.732,1.637,1.633  c0,0.902-0.735,1.637-1.637,1.637C60.739,63.862,60.004,63.128,60.004,62.226z"></path></svg>