<svg xmlns="http://www.w3.org/2000/svg" xmlns:xlink="http://www.w3.org/1999/xlink" version="1.1" x="0px" y="0px" viewBox="0 0 425.2 425.2" enable-background="new 0 0 425.2 425.2" xml:space="preserve"><g><g><g><path d="M186.333,334.402H53.508c-8.339,0-15.124-6.768-15.124-15.086V94.743l-0.024-22.19H27.286     c-8.318,0-15.085-6.784-15.085-15.123V27.304c0-8.339,6.767-15.124,15.085-15.124h370.625c8.318,0,15.086,6.784,15.086,15.124     V57.43c0,8.339-6.768,15.123-15.086,15.123H68.568v-8h329.343c3.907,0,7.086-3.195,7.086-7.123V27.304     c0-3.928-3.179-7.124-7.086-7.124H27.286c-3.907,0-7.085,3.196-7.085,7.124V57.43c0,3.928,3.179,7.123,7.085,7.123h19.065     l0.033,30.186v224.578c0,3.907,3.196,7.086,7.124,7.086h132.826V334.402z"></path></g><g><path d="M212.599,412.503c-12.996,0-23.569-10.573-23.569-23.569c0-11.634,8.471-21.325,19.569-23.229v-39.302h163.035     c3.927,0,7.122-3.179,7.122-7.086V94.743h8v224.573c0,8.318-6.784,15.086-15.122,15.086H216.599v38.962h-4     c-8.585,0-15.569,6.984-15.569,15.569s6.984,15.569,15.569,15.569c8.584,0,15.568-6.984,15.568-15.569h8     C236.167,401.93,225.595,412.503,212.599,412.503z"></path></g><g><path d="M187.901,244.927l-1.648-7.828c28.433-5.986,49.07-31.45,49.07-60.548c0-3.9-0.38-7.855-1.13-11.754l7.855-1.511     c0.846,4.396,1.274,8.858,1.274,13.265C243.322,209.41,220.014,238.166,187.901,244.927z"></path></g><g><g><path d="M158.935,244.927c-32.09-6.774-55.381-35.531-55.381-68.376c0-13.534,3.856-26.588,11.171-37.893l-14.509-35.329      l35.329,14.509c11.305-7.315,24.359-11.171,37.893-11.171c33.448,0,62.303,23.812,68.61,56.619l-7.855,1.511      c-5.585-29.047-31.135-50.13-60.754-50.13c-12.634,0-24.793,3.793-35.164,10.971l-1.787,1.236l-21.595-8.869l8.869,21.595      l-1.236,1.787c-7.177,10.371-10.971,22.53-10.971,35.164c0,29.086,20.622,54.551,49.033,60.548L158.935,244.927z"></path></g></g><g><g><path d="M324.884,301.635l-35.328-14.511c-11.305,7.317-24.358,11.173-37.894,11.173c-33.448,0-62.303-23.812-68.61-56.62      l-0.713-3.436l7.834-1.621l0.723,3.483c5.597,29.11,31.147,50.193,60.766,50.193c12.635,0,24.795-3.794,35.165-10.972      l1.786-1.236l21.595,8.87l-8.869-21.597l1.236-1.786c7.177-10.369,10.971-22.528,10.971-35.163      c0-29.087-20.621-54.551-49.032-60.549l1.652-7.827c32.089,6.774,55.38,35.531,55.38,68.376      c0,13.535-3.855,26.588-11.172,37.892L324.884,301.635z"></path></g></g></g></g></svg>