<?xml version="1.0" standalone="no"?>
<!DOCTYPE svg PUBLIC "-//W3C//DTD SVG 20010904//EN"
 "http://www.w3.org/TR/2001/REC-SVG-20010904/DTD/svg10.dtd">
<svg version="1.0" xmlns="http://www.w3.org/2000/svg"
 width="228.000000pt" height="228.000000pt" viewBox="0 0 228.000000 228.000000"
 preserveAspectRatio="xMidYMid meet">
<metadata>
Created by potrace 1.11, written by Peter Selinger 2001-2013
</metadata>
<g transform="translate(0.000000,228.000000) scale(0.100000,-0.100000)"
fill="#000000" stroke="none">
<path d="M1694 1912 c-81 -29 -156 -79 -272 -182 -59 -53 -159 -131 -222 -174
-157 -108 -356 -257 -466 -349 -161 -135 -231 -226 -222 -288 4 -26 -7 -37
-151 -148 -242 -185 -357 -285 -353 -307 5 -33 37 -68 83 -92 38 -20 53 -23
109 -17 121 11 318 94 537 224 l102 61 73 -11 c39 -6 98 -9 130 -7 32 2 58 2
58 -2 0 -3 -12 -23 -26 -44 -15 -21 -22 -41 -17 -45 5 -3 38 -26 73 -51 l63
-45 -96 -3 -97 -3 0 -44 0 -45 265 0 265 0 0 45 0 45 -86 0 -85 0 -95 66 -94
66 24 41 c14 23 35 47 48 54 13 6 72 34 132 62 l109 52 -38 -47 -38 -46 32
-31 32 -32 40 45 c169 192 312 394 384 545 42 86 95 247 95 285 0 15 17 19
133 30 72 7 136 16 141 21 25 22 -157 225 -241 268 -21 10 -49 31 -63 46 -62
66 -174 90 -266 57z m152 -87 c20 -8 48 -27 62 -43 15 -15 47 -40 72 -55 54
-32 137 -103 129 -111 -3 -3 -32 -8 -65 -11 -153 -15 -144 -12 -144 -55 0 -22
-5 -62 -11 -90 -9 -43 -14 -50 -27 -43 -21 10 -218 10 -255 0 -23 -6 -26 -11
-21 -35 14 -62 11 -60 57 -51 23 4 70 8 105 9 72 0 71 2 42 -92 -62 -203 -294
-401 -580 -498 -40 -14 -101 -24 -160 -27 l-95 -5 32 28 33 29 -28 33 -27 32
-68 -46 c-66 -45 -70 -46 -106 -36 -81 25 -191 124 -191 173 0 11 17 30 39 44
68 45 357 164 575 237 116 39 212 71 214 73 5 4 -18 85 -24 85 -14 0 -373
-123 -463 -159 -57 -23 -105 -40 -107 -38 -4 4 260 200 426 315 80 55 182 134
228 175 125 114 228 175 295 176 15 1 44 -6 63 -14z m-1172 -1110 c25 -15 44
-31 41 -35 -9 -14 -156 -97 -266 -149 -121 -58 -248 -95 -297 -86 -18 3 -32
10 -30 14 5 12 118 107 283 235 l148 115 37 -33 c21 -19 58 -46 84 -61z"/>
<path d="M1737 1732 c-26 -28 -21 -69 9 -89 24 -15 29 -15 53 -2 16 9 27 25
29 43 7 55 -56 87 -91 48z"/>
</g>
</svg>
